<svg width="127" height="19" viewBox="0 0 127 19" fill="none" xmlns="http://www.w3.org/2000/svg">
<path d="M0.632 17.46V0.323999H7.064L10.184 10.644H10.28L13.4 0.323999H19.76V17.46H15.032V5.892H14.936L11.48 17.46H8.144L4.712 5.868H4.592V17.46H0.632ZM22.9914 17.46V0.323999H34.8234V3.756H27.7434V7.02H33.2874V10.404H27.7434V14.028H35.0634V17.46H22.9914ZM37.8273 17.46V0.323999H44.2593L47.3793 10.644H47.4753L50.5953 0.323999H56.9553V17.46H52.2273V5.892H52.1313L48.6753 17.46H45.3393L41.9073 5.868H41.7873V17.46H37.8273ZM60.1867 17.46V0.323999H67.6267C71.4667 0.323999 73.5067 1.764 73.5067 4.668C73.5067 6.636 72.5947 7.908 70.6267 8.46V8.532C72.7867 8.916 74.2747 10.068 74.2747 12.588C74.2747 15.372 72.3787 17.46 67.9387 17.46H60.1867ZM64.8907 14.364H66.9307C68.4187 14.364 69.3067 13.668 69.3067 12.156C69.3067 10.668 68.4427 10.044 66.8107 10.044H64.8907V14.364ZM64.8907 7.428H66.6187C67.9627 7.428 68.8987 6.876 68.8987 5.34C68.8987 3.924 68.1307 3.372 66.6907 3.372H64.8907V7.428ZM76.7336 17.46V0.323999H88.5656V3.756H81.4856V7.02H87.0296V10.404H81.4856V14.028H88.8056V17.46H76.7336ZM91.5695 17.46V0.323999H98.7695C103.114 0.323999 105.274 1.98 105.274 5.676C105.274 8.028 104.218 9.228 102.442 9.996V10.092L106.258 17.46H101.266L98.1455 11.22H96.3695V17.46H91.5695ZM96.3215 8.34H98.1215C99.8255 8.34 100.498 7.524 100.498 5.892C100.498 4.308 99.8015 3.588 98.0495 3.588H96.3215V8.34ZM113.2 17.748C110.8 17.748 108.784 17.388 107.56 16.74V13.236C109.072 13.788 110.632 14.196 112.624 14.196C114.544 14.196 115.288 13.62 115.288 12.588C115.288 11.604 114.856 11.292 113.2 10.956L111.904 10.716C109.192 10.188 107.512 8.988 107.512 5.388C107.512 2.148 109.528 0.0359988 113.872 0.0359988C116.608 0.0359988 117.952 0.443999 118.96 0.923999V4.38C117.76 3.972 116.272 3.564 114.328 3.564C112.792 3.564 112 4.044 112 5.028C112 5.94 112.504 6.276 114.016 6.588L115.288 6.828C118.312 7.404 119.992 8.604 119.992 12.084C119.992 15.756 117.64 17.748 113.2 17.748ZM121.932 18.132V14.268H126.108V18.132H121.932Z" fill="#1D1A1A"/>
</svg>
