<svg width="94" height="19" viewBox="0 0 94 19" fill="none" xmlns="http://www.w3.org/2000/svg">
<path d="M0.632 17.46V0.323999H5.816L11.36 9.924H11.432V0.323999H15.536V17.46H10.952L4.832 6.78H4.736V17.46H0.632ZM26.3086 17.748C21.7006 17.748 18.0766 15.228 18.0766 9.228V8.652C18.0766 2.556 22.0366 0.0359988 26.4286 0.0359988C31.0126 0.0359988 34.6606 2.556 34.6606 8.556V9.132C34.6606 15.228 30.7006 17.748 26.3086 17.748ZM26.4046 14.244C28.4926 14.244 29.5966 12.684 29.5966 9.42V8.556C29.5966 4.98 28.5886 3.54 26.3326 3.54C24.2206 3.54 23.1166 5.1 23.1166 8.34V9.204C23.1166 12.9 24.2206 14.244 26.4046 14.244ZM40.7459 17.46V3.756H36.2339V0.323999H50.0579V3.756H45.5699V17.46H40.7459ZM52.4311 17.46V0.323999H57.2551V17.46H52.4311ZM68.1457 17.748C62.9377 17.748 59.8657 15.036 59.8657 9.228V8.628C59.8657 2.388 63.6097 0.0359988 68.3377 0.0359988C70.4737 0.0359988 71.8417 0.3 72.8017 0.779999V4.26C71.7697 3.9 70.7857 3.66 69.2977 3.66C66.5377 3.66 64.9777 5.004 64.9777 8.292V9.06C64.9777 12.348 66.0817 14.124 69.2497 14.124C70.9777 14.124 72.1057 13.764 72.9697 13.404V16.836C71.8177 17.364 70.3537 17.748 68.1457 17.748ZM75.4679 17.46V0.323999H87.2999V3.756H80.2199V7.02H85.7639V10.404H80.2199V14.028H87.5399V17.46H75.4679ZM89.7759 18.132V14.268H93.9519V18.132H89.7759Z" fill="#1D1A1A"/>
</svg>
