<svg width="101" height="19" viewBox="0 0 101 19" fill="none" xmlns="http://www.w3.org/2000/svg">
<path d="M6.552 17.748C4.152 17.748 2.136 17.388 0.912 16.74V13.236C2.424 13.788 3.984 14.196 5.976 14.196C7.896 14.196 8.64 13.62 8.64 12.588C8.64 11.604 8.208 11.292 6.552 10.956L5.256 10.716C2.544 10.188 0.864 8.988 0.864 5.388C0.864 2.148 2.88 0.0359988 7.224 0.0359988C9.96 0.0359988 11.304 0.443999 12.312 0.923999V4.38C11.112 3.972 9.624 3.564 7.68 3.564C6.144 3.564 5.352 4.044 5.352 5.028C5.352 5.94 5.856 6.276 7.368 6.588L8.64 6.828C11.664 7.404 13.344 8.604 13.344 12.084C13.344 15.756 10.992 17.748 6.552 17.748ZM15.8117 17.46V0.323999H27.6437V3.756H20.5637V7.02H26.1077V10.404H20.5637V14.028H27.8837V17.46H15.8117ZM34.1756 17.46V3.756H29.6636V0.323999H43.4876V3.756H38.9996V17.46H34.1756ZM45.7648 17.46V0.323999H50.5648V14.028H57.0688V17.46H45.7648ZM59.6421 17.46V0.323999H64.4661V17.46H59.6421ZM72.6926 17.748C70.2926 17.748 68.2766 17.388 67.0526 16.74V13.236C68.5646 13.788 70.1246 14.196 72.1166 14.196C74.0366 14.196 74.7806 13.62 74.7806 12.588C74.7806 11.604 74.3486 11.292 72.6926 10.956L71.3966 10.716C68.6846 10.188 67.0046 8.988 67.0046 5.388C67.0046 2.148 69.0206 0.0359988 73.3646 0.0359988C76.1006 0.0359988 77.4446 0.443999 78.4526 0.923999V4.38C77.2526 3.972 75.7646 3.564 73.8206 3.564C72.2846 3.564 71.4926 4.044 71.4926 5.028C71.4926 5.94 71.9966 6.276 73.5086 6.588L74.7806 6.828C77.8046 7.404 79.4846 8.604 79.4846 12.084C79.4846 15.756 77.1326 17.748 72.6926 17.748ZM85.4803 17.46V3.756H80.9683V0.323999H94.7923V3.756H90.3043V17.46H85.4803ZM96.5415 18.132V14.268H100.718V18.132H96.5415Z" fill="#1D1A1A"/>
</svg>
